<?xml version="1.0" encoding="utf-8"?>
<!-- Generator: Adobe Illustrator 22.0.1, SVG Export Plug-In . SVG Version: 6.00 Build 0)  -->
<svg version="1.1" id="Layer_1" xmlns="http://www.w3.org/2000/svg" xmlns:xlink="http://www.w3.org/1999/xlink" x="0px" y="0px"
	 viewBox="0 0 1366 768" style="enable-background:new 0 0 1366 768;" xml:space="preserve">
<style type="text/css">
	.st0{fill:#FFFFFF;}
	.st1{fill:#A6A6A6;}
	.st2{fill:#B2B2B2;}
	.st3{fill:#A0A0A0;}
	.st4{fill:#A3A3A3;}
</style>
<g>
	<g>
		<path class="st0" d="M722.3,422.2c-52.9,0-105.7,0-158.6,0c0-50.3,0-100.6,0-150.9c52.9,0,105.7,0,158.6,0
			C722.2,321.6,722.2,371.9,722.3,422.2z M640.7,383.8c-13.3,0-26.6-0.2-39.9,0.2c-2.9,0.1-7,1.5-8.5,3.7
			c-5.2,7.4,0.1,18.2,9.5,19.2c10.3,1.1,20.8,1.3,31.2,1.2c15.4-0.1,30.7-0.6,46.1-1.3c7-0.3,11.8-6.9,11.3-14.3
			c-0.4-7.4-5.8-8.6-12-8.6C665.8,383.8,653.2,383.8,640.7,383.8z M640.6,329c12.5,0,25.1,0.1,37.6,0c9.2-0.1,13.6-4.6,11.8-13.3
			c-2.5-12.4-10.9-21-21.9-27.1c-13.7-7.6-29-5.9-43.6-4c-16.2,2.1-35.6,18.2-33.7,35.4c0.6,5.9,3,9.2,9.7,9.1
			C613.9,328.9,627.3,329,640.6,329z M640.4,358.4c-13.6,0-27.2,0.1-40.7-0.1c-5.9-0.1-8.9,1.9-8.7,7.7c0.2,5.5,3.1,8,8.9,8
			c26.9-0.1,53.8,0,80.7,0c5.9,0,9.4-2.5,9.7-8.3c0.4-6.9-4.6-7.4-9.9-7.4C667,358.4,653.7,358.4,640.4,358.4z M591.4,346.5
			c0.5,0.7,0.9,1.5,1.4,2.2c2.1-1.5,4.4-2.7,6.2-4.4c3.7-3.6,7.7-3.6,10.5,0.2c4.7,6.5,9.1,4.6,13.3,0.2c4-4.1,7-4.5,10.6,0.3
			c3.6,4.9,8.3,5.2,12.2,0.6c4.5-5.3,8.3-5,12.7-0.1c4,4.4,8.6,4.8,12.4-0.2c3.8-5,7-5.5,10.6,0.1c2.6,4.1,5.6,3.7,10,0.3
			c-2.9-1.5-4.7-2-5.9-3.1c-5.9-5.5-11.5-6.9-18.3-0.7c-1.2,1.1-6.1-0.2-8.4-1.7c-4.7-2.9-9-4.5-13.1,0.1c-3.9,4.3-8,3.7-11.4,0.3
			c-4.9-4.8-8.9-3.1-13.7-0.1c-2.2,1.4-6.1,2.6-7.9,1.6C601.5,336.1,599.1,336.4,591.4,346.5z"/>
		<path class="st1" d="M640.7,383.8c12.5,0,25.1,0,37.6,0c6.2,0,11.6,1.1,12,8.6c0.4,7.4-4.3,14-11.3,14.3
			c-15.3,0.7-30.7,1.2-46.1,1.3c-10.4,0.1-20.9-0.1-31.2-1.2c-9.4-1-14.6-11.8-9.5-19.2c1.5-2.1,5.6-3.6,8.5-3.7
			C614.1,383.6,627.4,383.8,640.7,383.8z M639.6,402C639.6,402,639.6,401.9,639.6,402c12.6-0.1,25.1,0,37.7-0.1
			c5.7-0.1,9.5-2.7,9.3-8.7c-0.2-6.1-4.9-6-9.6-6c-24.3,0-48.7,0.1-73,0c-5.3,0-10.3,1.1-10.3,6.5c0,5.6,4.2,8.5,10.5,8.4
			C616.1,401.8,627.8,402,639.6,402z"/>
		<path class="st2" d="M640.6,329c-13.3,0-26.7-0.1-40,0.1c-6.7,0.1-9-3.2-9.7-9.1c-1.9-17.3,17.5-33.4,33.7-35.4
			c14.5-1.9,29.9-3.6,43.6,4c11,6.1,19.4,14.7,21.9,27.1c1.7,8.7-2.6,13.2-11.8,13.3C665.7,329.1,653.2,329,640.6,329z M639.9,325.7
			c12.5,0,25.1,0.1,37.6,0c7.5-0.1,11-3.7,8.6-10.4c-1.9-5.4-5.1-10.9-9.2-15c-11.2-11-25.5-13.9-41.3-13.2
			c-19.5,0.9-33,9.6-39.9,27.1c-3.1,8-0.7,11.5,8.2,11.6C615.9,325.8,627.9,325.7,639.9,325.7z"/>
		<path class="st3" d="M640.4,358.4c13.3,0,26.6,0,39.9,0c5.3,0,10.3,0.5,9.9,7.4c-0.3,5.8-3.8,8.3-9.7,8.3c-26.9,0-53.8,0-80.7,0
			c-5.8,0-8.7-2.4-8.9-8c-0.2-5.8,2.8-7.8,8.7-7.7C613.3,358.5,626.8,358.4,640.4,358.4z M593.8,363.4c-0.2,1.2-0.3,2.4-0.5,3.6
			c3.2,1.2,6.4,3.4,9.7,3.4c25.1,0.3,50.2,0.1,75.3,0.2c3.8,0,8.2,0,7.7-4.8c-0.2-1.6-4.8-3.8-7.5-3.9c-25.4-0.3-50.7-0.2-76.1-0.1
			C599.5,361.9,596.7,362.9,593.8,363.4z"/>
		<path class="st4" d="M591.4,346.5c7.7-10.1,10.1-10.4,21.3-4.3c1.8,1,5.8-0.2,7.9-1.6c4.8-3,8.8-4.7,13.7,0.1
			c3.4,3.4,7.5,4.1,11.4-0.3c4.1-4.6,8.4-3,13.1-0.1c2.3,1.4,7.2,2.8,8.4,1.7c6.7-6.2,12.3-4.8,18.3,0.7c1.2,1.1,3,1.6,5.9,3.1
			c-4.4,3.4-7.4,3.7-10-0.3c-3.6-5.6-6.7-5.1-10.6-0.1c-3.8,5-8.4,4.5-12.4,0.2c-4.5-4.8-8.2-5.1-12.7,0.1c-4,4.6-8.6,4.3-12.2-0.6
			c-3.6-4.8-6.6-4.4-10.6-0.3c-4.3,4.4-8.6,6.2-13.3-0.2c-2.8-3.8-6.8-3.8-10.5-0.2c-1.8,1.7-4.1,3-6.2,4.4
			C592.3,348,591.8,347.3,591.4,346.5z"/>
		<path class="st0" d="M639.6,402c-11.8,0-23.5-0.2-35.3,0.1c-6.4,0.1-10.6-2.8-10.5-8.4c0-5.4,5-6.5,10.3-6.5
			c24.3,0.1,48.7,0.1,73,0c4.6,0,9.4-0.2,9.6,6c0.2,5.9-3.6,8.6-9.3,8.7C664.7,402,652.2,401.9,639.6,402
			C639.6,401.9,639.6,402,639.6,402z"/>
		<path class="st0" d="M639.9,325.7c-12,0-24,0.1-36,0c-8.9-0.1-11.3-3.6-8.2-11.6c6.8-17.5,20.4-26.2,39.9-27.1
			c15.8-0.7,30.1,2.2,41.3,13.2c4.1,4.1,7.3,9.6,9.2,15c2.4,6.7-1.1,10.4-8.6,10.4C665,325.8,652.4,325.7,639.9,325.7z"/>
		<path class="st0" d="M593.8,363.4c2.9-0.5,5.7-1.5,8.6-1.5c25.4-0.1,50.7-0.2,76.1,0.1c2.6,0,7.3,2.3,7.5,3.9
			c0.5,4.8-3.9,4.8-7.7,4.8c-25.1,0-50.2,0.1-75.3-0.2c-3.2,0-6.4-2.2-9.7-3.4C593.4,365.8,593.6,364.6,593.8,363.4z"/>
	</g>
</g>
</svg>
