<?xml version="1.0" encoding="utf-8"?>
<!-- Generator: Adobe Illustrator 22.0.1, SVG Export Plug-In . SVG Version: 6.00 Build 0)  -->
<svg version="1.1" id="Layer_1" xmlns="http://www.w3.org/2000/svg" xmlns:xlink="http://www.w3.org/1999/xlink" x="0px" y="0px"
	 viewBox="0 0 200 72" style="enable-background:new 0 0 200 72;" xml:space="preserve">
<style type="text/css">
	.st0{fill:#FFFFFF;}
	.st1{fill:#A6A6A6;}
	.st2{fill:#B2B2B2;}
	.st3{fill:#A0A0A0;}
	.st4{fill:#A3A3A3;}
</style>
<g>
	<g>
		<path d="M0.3,44.7c1,0.6,2.5,1.1,4.1,1.1c2.3,0,3.7-1.2,3.7-3c0-1.6-0.9-2.6-3.3-3.5c-2.9-1-4.6-2.5-4.6-5c0-2.7,2.3-4.8,5.7-4.8
			c1.8,0,3.1,0.4,3.9,0.9l-0.6,1.8c-0.6-0.3-1.7-0.8-3.3-0.8c-2.4,0-3.3,1.4-3.3,2.6c0,1.6,1.1,2.4,3.5,3.4c3,1.1,4.5,2.6,4.5,5.1
			c0,2.7-2,5-6.1,5C2.8,47.5,1,47,0,46.4L0.3,44.7z"/>
		<path d="M15.7,30v7.3h8.5V30h2.3v17.5h-2.3v-8.2h-8.5v8.2h-2.3V30H15.7z"/>
		<path d="M33.2,42l-1.8,5.5h-2.3l6-17.5h2.7l6,17.5h-2.4L39.5,42H33.2z M38.9,40.2l-1.7-5c-0.4-1.1-0.6-2.2-0.9-3.2h-0.1
			c-0.3,1-0.5,2.1-0.9,3.2l-1.7,5.1h5.3V40.2z"/>
		<path d="M46.3,30h2.3v8.5h0.1c0.5-0.7,0.9-1.3,1.4-1.9l5.4-6.6h2.8L52,37.4l6.8,10.1h-2.7l-5.8-8.6l-1.7,1.9v6.7h-2.3L46.3,30
			L46.3,30z"/>
		<path d="M69.4,39.3h-6.8v6.3h7.6v1.9h-9.9V30h9.5v1.9h-7.2v5.5h6.8V39.3z"/>
	</g>
	<g>
		<path d="M158.3,44.7c1,0.6,2.5,1.1,4.1,1.1c2.3,0,3.7-1.2,3.7-3c0-1.6-0.9-2.6-3.3-3.5c-2.9-1-4.6-2.5-4.6-5
			c0-2.7,2.3-4.8,5.7-4.8c1.8,0,3.1,0.4,3.9,0.9l-0.6,1.8c-0.6-0.3-1.7-0.8-3.3-0.8c-2.4,0-3.3,1.4-3.3,2.6c0,1.6,1.1,2.4,3.5,3.4
			c3,1.1,4.5,2.6,4.5,5.1c0,2.7-2,5-6.1,5c-1.7,0-3.5-0.5-4.5-1.1L158.3,44.7z"/>
		<path d="M173.7,30v7.3h8.5V30h2.3v17.5h-2.3v-8.2h-8.5v8.2h-2.3V30H173.7z"/>
		<path d="M191.2,42l-1.8,5.5h-2.3l6-17.5h2.7l6,17.5h-2.4l-1.9-5.5H191.2z M196.9,40.2l-1.7-5c-0.4-1.1-0.6-2.2-0.9-3.2h-0.1
			c-0.3,1-0.5,2.1-0.9,3.2l-1.7,5.1h5.3V40.2z"/>
		<path d="M204.3,30h2.3v8.5h0.1c0.5-0.7,0.9-1.3,1.4-1.9l5.4-6.6h2.8l-6.3,7.4l6.8,10.1h-2.7l-5.8-8.6l-1.7,1.9v6.7h-2.3V30z"/>
		<path d="M227.4,39.3h-6.8v6.3h7.6v1.9h-9.9V30h9.5v1.9h-7.2v5.5h6.8V39.3z"/>
	</g>
	<g>
		<g>
			<path class="st0" d="M155,69.8c-27.6,0-55.1,0-82.7,0c0-22.6,0-45.1,0-67.7c27.6,0,55.1,0,82.7,0C155,24.7,155,47.2,155,69.8z
				 M112.5,52.7c-6.9,0-13.9-0.1-20.8,0.1c-1.5,0-3.7,0.7-4.4,1.7c-2.7,3.3,0.1,8.2,5,8.6c5.4,0.5,10.8,0.6,16.3,0.5
				c8,0,16-0.3,24-0.6c3.7-0.1,6.2-3.1,5.9-6.4c-0.2-3.3-3-3.9-6.3-3.9C125.5,52.7,119,52.7,112.5,52.7z M112.4,28
				c6.5,0,13.1,0,19.6,0c4.8,0,7.1-2.1,6.2-6c-1.3-5.6-5.7-9.4-11.4-12.2c-7.1-3.4-15.1-2.6-22.7-1.8c-8.4,0.9-18.6,8.2-17.6,15.9
				c0.3,2.6,1.6,4.1,5.1,4.1C98.5,28,105.5,28,112.4,28z M112.3,41.2c-7.1,0-14.2,0-21.2,0c-3.1,0-4.6,0.9-4.5,3.5
				c0.1,2.5,1.6,3.6,4.6,3.6c14,0,28.1,0,42.1,0c3.1,0,4.9-1.1,5.1-3.7c0.2-3.1-2.4-3.3-5.2-3.3C126.2,41.2,119.2,41.2,112.3,41.2z
				 M86.7,35.8c0.3,0.3,0.5,0.7,0.7,1c1.1-0.7,2.3-1.2,3.2-2c1.9-1.6,4-1.6,5.5,0.1c2.5,2.9,4.7,2.1,6.9,0.1c2.1-1.8,3.7-2,5.5,0.1
				c1.9,2.2,4.3,2.3,6.4,0.3c2.3-2.4,4.3-2.2,6.6,0c2.1,2,4.5,2.2,6.5-0.1c2-2.2,3.7-2.5,5.5,0c1.4,1.8,2.9,1.7,5.2,0.1
				c-1.5-0.7-2.5-0.9-3.1-1.4c-3.1-2.5-6-3.1-9.5-0.3c-0.6,0.5-3.2-0.1-4.4-0.8c-2.5-1.3-4.7-2-6.8,0c-2,1.9-4.2,1.7-5.9,0.1
				c-2.6-2.2-4.6-1.4-7.1,0c-1.1,0.6-3.2,1.2-4.1,0.7C92,31.2,90.8,31.3,86.7,35.8z"/>
			<path class="st1" d="M112.5,52.7c6.5,0,13.1,0,19.6,0c3.2,0,6,0.5,6.3,3.9c0.2,3.3-2.2,6.3-5.9,6.4c-8,0.3-16,0.5-24,0.6
				c-5.4,0-10.9,0-16.3-0.5c-4.9-0.4-7.6-5.3-5-8.6c0.8-0.9,2.9-1.6,4.4-1.7C98.6,52.5,105.5,52.7,112.5,52.7z M111.9,60.7
				L111.9,60.7c6.6,0,13.1,0,19.7,0c3,0,5-1.2,4.9-3.9s-2.6-2.7-5-2.7c-12.7,0-25.4,0-38.1,0c-2.8,0-5.4,0.5-5.4,2.9
				c0,2.5,2.2,3.8,5.5,3.8C99.6,60.7,105.7,60.7,111.9,60.7z"/>
			<path class="st2" d="M112.4,28c-6.9,0-13.9,0-20.9,0c-3.5,0-4.7-1.4-5.1-4.1c-1-7.8,9.1-15,17.6-15.9c7.6-0.9,15.6-1.6,22.7,1.8
				c5.7,2.7,10.1,6.6,11.4,12.2c0.9,3.9-1.4,5.9-6.2,6C125.5,28,119,28,112.4,28z M112,26.5c6.5,0,13.1,0,19.6,0
				c3.9,0,5.7-1.7,4.5-4.7c-1-2.4-2.7-4.9-4.8-6.7c-5.8-4.9-13.3-6.2-21.5-5.9C99.6,9.7,92.6,13.6,89,21.5c-1.6,3.6-0.4,5.2,4.3,5.2
				C99.5,26.7,105.8,26.5,112,26.5z"/>
			<path class="st3" d="M112.3,41.2c6.9,0,13.9,0,20.8,0c2.8,0,5.4,0.2,5.2,3.3c-0.2,2.6-2,3.7-5.1,3.7c-14,0-28.1,0-42.1,0
				c-3,0-4.5-1.1-4.6-3.6C86.4,42,88,41.1,91,41.1C98.2,41.2,105.2,41.2,112.3,41.2z M88,43.5c-0.1,0.5-0.2,1.1-0.3,1.6
				c1.7,0.5,3.3,1.5,5.1,1.5c13.1,0.1,26.2,0,39.3,0.1c2,0,4.3,0,4-2.2c-0.1-0.7-2.5-1.7-3.9-1.7c-13.2-0.1-26.4-0.1-39.7,0
				C91,42.7,89.5,43.2,88,43.5z"/>
			<path class="st4" d="M86.7,35.8c4-4.5,5.3-4.7,11.1-1.9c0.9,0.4,3-0.1,4.1-0.7c2.5-1.3,4.6-2.1,7.1,0c1.8,1.5,3.9,1.8,5.9-0.1
				c2.1-2.1,4.4-1.3,6.8,0c1.2,0.6,3.8,1.3,4.4,0.8c3.5-2.8,6.4-2.2,9.5,0.3c0.6,0.5,1.6,0.7,3.1,1.4c-2.3,1.5-3.9,1.7-5.2-0.1
				c-1.9-2.5-3.5-2.3-5.5,0c-2,2.2-4.4,2-6.5,0.1c-2.3-2.2-4.3-2.3-6.6,0c-2.1,2.1-4.5,1.9-6.4-0.3s-3.4-2-5.5-0.1
				c-2.2,2-4.5,2.8-6.9-0.1c-1.5-1.7-3.5-1.7-5.5-0.1c-0.9,0.8-2.1,1.3-3.2,2C87.2,36.5,87,36.2,86.7,35.8z"/>
			<path class="st0" d="M111.9,60.7c-6.2,0-12.3-0.1-18.4,0c-3.3,0-5.5-1.3-5.5-3.8c0-2.4,2.6-2.9,5.4-2.9c12.7,0,25.4,0,38.1,0
				c2.4,0,4.9-0.1,5,2.7c0.1,2.6-1.9,3.9-4.9,3.9C125,60.7,118.5,60.7,111.9,60.7L111.9,60.7z"/>
			<path class="st0" d="M112,26.5c-6.3,0-12.5,0-18.8,0c-4.6,0-5.9-1.6-4.3-5.2c3.5-7.9,10.6-11.8,20.8-12.2
				c8.2-0.3,15.7,1,21.5,5.9c2.1,1.8,3.8,4.3,4.8,6.7c1.3,3-0.6,4.7-4.5,4.7C125.1,26.7,118.6,26.5,112,26.5z"/>
			<path class="st0" d="M88,43.5c1.5-0.2,3-0.7,4.5-0.7c13.2,0,26.4-0.1,39.7,0c1.4,0,3.8,1,3.9,1.7c0.3,2.2-2,2.2-4,2.2
				c-13.1,0-26.2,0-39.3-0.1c-1.7,0-3.3-1-5.1-1.5C87.8,44.5,87.9,44,88,43.5z"/>
		</g>
	</g>
</g>
</svg>
