<?xml version="1.0" encoding="utf-8"?>
<!-- Generator: Adobe Illustrator 22.0.1, SVG Export Plug-In . SVG Version: 6.00 Build 0)  -->
<svg version="1.1" id="Layer_1" xmlns="http://www.w3.org/2000/svg" xmlns:xlink="http://www.w3.org/1999/xlink" x="0px" y="0px"
	 viewBox="0 0 278 52" style="enable-background:new 0 0 278 52;" xml:space="preserve">
<style type="text/css">
	.st0{fill:#FFFFFF;}
	.st1{fill:none;}
	.st2{font-family:'MyriadPro-Regular';}
	.st3{font-size:28px;}
</style>
<g>
	<g>
		<path class="st0" d="M108.6,52.5c0-17.4,0-34.7,0-52c21.7,0,43.3,0,65,0c0,17.3,0,34.6,0,52C152,52.5,130.4,52.5,108.6,52.5z
			 M140.3,39.7c-5.5,0-10.9,0-16.4,0c-2,0-3.9,0.2-4.2,2.8c-0.3,3,0.7,4.6,3.5,5.1c1.2,0.2,2.4,0.5,3.6,0.5
			c9.9-0.1,19.7-0.3,29.6-0.5c2.5-0.1,4.7-2.6,4.6-4.9c-0.1-2-1.6-3-4.6-3C151,39.6,145.7,39.7,140.3,39.7z M140.1,20.6
			c5.5,0,11.1,0,16.6,0c3.1,0,5.3-2.8,4-5.3c-2.5-5.1-6.6-8.7-12.1-9.8c-3.9-0.8-8.1-0.6-12.1-0.6c-6.5-0.1-11.7,2.7-15.5,7.8
			c-1.1,1.5-1.3,4.2-0.9,6.1c0.4,1.8,2.6,1.9,4.4,1.8C129.7,20.6,134.9,20.6,140.1,20.6z M140,30.8C140,30.8,140,30.8,140,30.8
			c-5.9,0-11.8,0-17.7,0c-1.4,0-2.7,0.4-2.5,1.9c0.2,1.2,1,2.3,1.8,3.3c0.3,0.4,1.3,0.2,2,0.2c2.1,0,4.2,0,6.2,0
			c8.6,0,17.1,0,25.7,0c0.7,0,1.4,0.1,2.1,0c1.6-0.4,3.2-0.8,3.2-3c0-2.3-1.8-2.4-3.3-2.4C151.8,30.8,145.9,30.8,140,30.8z
			 M119.8,26.4c0.1,0.4,0.2,0.7,0.4,1.1c1.1-0.5,2.3-0.8,3.1-1.5c1.3-1.1,2.6-1.3,3.9-0.3c2.7,2.3,3.2,2.4,5.8,0.3
			c1.7-1.3,3.1-1.7,4.6,0.4c1,1.4,3.6,1.4,4.8,0.2c2.2-2.1,3.1-2.1,5.4-0.1c1.6,1.4,3.9,1.3,5.2-0.3c1.4-1.7,2.5-1.8,3.9,0.1
			c1.2,1.6,2.4,1.6,4,0c-1.1-0.5-2.4-0.8-3.2-1.5c-2-1.6-3.6-1.4-5.6,0c-1.4,1-2.8,1.3-4.4-0.3c-1.4-1.3-3.5-1.7-5.1,0
			c-1.7,1.8-3.5,1.3-4.8,0.1c-1.9-1.6-3.9-1.3-5.4,0c-1.8,1.5-2.9,0.9-4.6,0.1c-1.3-0.7-3.1-0.9-4.5-0.6
			C122,24.3,121,25.6,119.8,26.4z"/>
		<path d="M140.3,39.7c5.4,0,10.7,0,16.1,0c3,0,4.5,1.1,4.6,3c0.1,2.3-2.1,4.9-4.6,4.9c-9.9,0.2-19.7,0.4-29.6,0.5
			c-1.2,0-2.4-0.2-3.6-0.5c-2.7-0.5-3.8-2.1-3.5-5.1c0.3-2.6,2.1-2.8,4.2-2.8C129.4,39.7,134.8,39.7,140.3,39.7z M140.5,40.9
			C140.5,40.9,140.5,40.9,140.5,40.9c-5.5,0-11.1-0.1-16.6,0.1c-1,0-1.9,1.5-2.8,2.3c0.9,0.9,1.7,1.9,2.7,2.7
			c0.4,0.3,1.2,0.1,1.8,0.1c9.4,0,18.9,0,28.3,0c0.9,0,1.7-0.1,2.6-0.2c1.8-0.2,2.9-1.1,2.7-3.1c-0.2-2-1.6-1.9-3.1-1.9
			C150.9,40.9,145.7,40.9,140.5,40.9z"/>
		<path d="M140.1,20.6c-5.2,0-10.4,0-15.6,0c-1.8,0-4,0-4.4-1.8c-0.4-1.9-0.2-4.6,0.9-6.1c3.8-5.1,9-7.9,15.5-7.8
			c4.1,0,8.2-0.2,12.1,0.6c5.5,1.1,9.6,4.7,12.1,9.8c1.2,2.5-0.9,5.3-4,5.3C151.2,20.6,145.6,20.6,140.1,20.6z M140.2,19.4
			c5.3,0,10.6,0,15.8,0c2.8,0,3.8-1.4,3-4c-1-3.1-3.4-5.1-6.1-6.5c-7.4-3.8-15.2-4.1-22.9-1.1c-3.5,1.4-7.1,3-8.2,7.5
			c-0.8,3.2-0.3,4.2,3.1,4.2C130,19.5,135.1,19.4,140.2,19.4z"/>
		<path d="M140,30.8c5.9,0,11.8-0.1,17.7,0c1.5,0,3.3,0.1,3.3,2.4c0,2.2-1.6,2.6-3.2,3c-0.7,0.1-1.4,0-2.1,0c-8.6,0-17.1,0-25.7,0
			c-2.1,0-4.2,0-6.2,0c-0.7,0-1.7,0.1-2-0.2c-0.8-0.9-1.7-2.1-1.8-3.3c-0.2-1.5,1.1-1.9,2.5-1.9C128.2,30.9,134.1,30.8,140,30.8
			C140,30.8,140,30.8,140,30.8z M121.2,32.6c-0.1,0.4-0.1,0.7-0.2,1.1c1.1,0.5,2.2,1.3,3.3,1.3c10.7,0.1,21.5,0.1,32.2,0.1
			c1.3,0,2.7,0,2.5-1.7c-0.1-0.6-1.6-1.3-2.5-1.3C145.6,32,134.8,32,124,32C123.1,32,122.1,32.4,121.2,32.6z"/>
		<path d="M119.8,26.4c1.2-0.8,2.2-2,3.5-2.3c1.4-0.3,3.2-0.1,4.5,0.6c1.7,0.9,2.8,1.4,4.6-0.1c1.5-1.3,3.4-1.6,5.4,0
			c1.4,1.2,3.1,1.7,4.8-0.1c1.6-1.7,3.7-1.3,5.1,0c1.6,1.5,3,1.3,4.4,0.3c2-1.4,3.6-1.6,5.6,0c0.9,0.7,2.1,1,3.2,1.5
			c-1.6,1.5-2.9,1.6-4,0c-1.3-1.8-2.5-1.8-3.9-0.1c-1.3,1.6-3.6,1.7-5.2,0.3c-2.3-2-3.2-2-5.4,0.1c-1.2,1.2-3.8,1.2-4.8-0.2
			c-1.5-2.1-2.9-1.7-4.6-0.4c-2.6,2-3.1,1.9-5.8-0.3c-1.3-1.1-2.6-0.9-3.9,0.3c-0.9,0.7-2.1,1-3.1,1.5
			C120.1,27.1,119.9,26.7,119.8,26.4z"/>
		<path class="st0" d="M140.5,40.9c5.2,0,10.4,0,15.6,0c1.4,0,2.9-0.1,3.1,1.9c0.2,1.9-0.9,2.8-2.7,3.1c-0.9,0.1-1.7,0.2-2.6,0.2
			c-9.4,0-18.9,0-28.3,0c-0.6,0-1.4,0.2-1.8-0.1c-1-0.8-1.8-1.8-2.7-2.7c0.9-0.8,1.9-2.2,2.8-2.3C129.5,40.7,135,40.9,140.5,40.9
			C140.5,40.9,140.5,40.9,140.5,40.9z"/>
		<path class="st0" d="M140.2,19.4c-5.1,0-10.2,0-15.3,0c-3.3,0-3.8-1.1-3.1-4.2c1.1-4.5,4.7-6.1,8.2-7.5c7.7-3,15.5-2.7,22.9,1.1
			c2.7,1.4,5.1,3.5,6.1,6.5c0.8,2.6-0.2,4-3,4C150.7,19.5,145.5,19.4,140.2,19.4z"/>
		<path class="st0" d="M121.2,32.6c0.9-0.2,1.9-0.6,2.8-0.6c10.8,0,21.6-0.1,32.5,0c0.9,0,2.5,0.7,2.5,1.3c0.2,1.7-1.2,1.7-2.5,1.7
			c-10.7,0-21.5,0-32.2-0.1c-1.1,0-2.2-0.9-3.3-1.3C121,33.3,121.1,33,121.2,32.6z"/>
	</g>
	<rect x="35.3" y="20" class="st1" width="79.3" height="21.5"/>
	<text transform="matrix(1 0 0 1 35.25 39.9208)" class="st2 st3">SHAKE</text>
	<rect x="165.3" y="20" class="st1" width="79.3" height="21.5"/>
	<text transform="matrix(1 0 0 1 165.25 39.9208)" class="st2 st3">SHAKE</text>
</g>
</svg>
