<?xml version="1.0" encoding="utf-8"?>
<!-- Generator: Adobe Illustrator 22.0.1, SVG Export Plug-In . SVG Version: 6.00 Build 0)  -->
<svg version="1.0" id="Layer_1" xmlns="http://www.w3.org/2000/svg" xmlns:xlink="http://www.w3.org/1999/xlink" x="0px" y="0px"
	 viewBox="0 0 841.9 595.3" style="enable-background:new 0 0 841.9 595.3;" xml:space="preserve">
<style type="text/css">
	.st0{fill:#FFFFFF;stroke:#C36363;}
	.st1{fill:#FFFFFF;stroke:#F29438;}
	.st2{fill:#FFFFFF;stroke:#F5C53A;}
	.st3{fill:#FFFFFF;stroke:#6CB92D;}
	.st4{fill:#FFFFFF;stroke:#84CBF1;}
	.st5{fill:#FFFFFF;stroke:#E4A1C5;}
	.st6{fill:#FFFFFF;stroke:#C9B8D9;}
	.st7{fill:#FFFFFF;stroke:#9D3F93;}
	.st8{fill:#FFFFFF;stroke:#D20F5F;}
	.st9{fill:#FFFFFF;stroke:#DF72A9;}
	.st10{fill:#FFFFFF;stroke:#4EC1E7;}
	.st11{fill:#FFFFFF;stroke:#F0822D;}
</style>
<path class="st0" d="M41.5,276h21.7l8.4,30.1l8.3-30.1h21.7v49.5H88.1v-37.8l-10.4,37.8H65.4L55,287.7v37.8H41.5V276z"/>
<path class="st1" d="M110.1,300.8c0-8.1,2.4-14.4,7.3-18.9c4.9-4.5,11.6-6.8,20.3-6.8c8.9,0,15.8,2.2,20.6,6.6s7.2,10.6,7.2,18.6
	c0,5.8-1.1,10.5-3.2,14.2s-5.1,6.6-9.1,8.6c-4,2.1-8.9,3.1-14.9,3.1c-6,0-11-0.9-15-2.7s-7.2-4.6-9.6-8.4
	C111.3,311.4,110.1,306.6,110.1,300.8z M126.6,300.9c0,5,1,8.6,3,10.8c2,2.2,4.7,3.3,8.2,3.3c3.6,0,6.3-1.1,8.2-3.2
	c1.9-2.1,2.9-6,2.9-11.5c0-4.7-1-8.1-3-10.2c-2-2.2-4.8-3.2-8.3-3.2c-3.3,0-6,1.1-8,3.3C127.6,292.2,126.6,295.8,126.6,300.9z"/>
<path class="st2" d="M172.4,300.8c0-8.1,2.4-14.4,7.3-18.9c4.9-4.5,11.6-6.8,20.3-6.8c8.9,0,15.8,2.2,20.6,6.6s7.2,10.6,7.2,18.6
	c0,5.8-1.1,10.5-3.2,14.2s-5.1,6.6-9.1,8.6c-4,2.1-8.9,3.1-14.9,3.1c-6,0-11-0.9-15-2.7s-7.2-4.6-9.6-8.4
	C173.6,311.4,172.4,306.6,172.4,300.8z M188.9,300.9c0,5,1,8.6,3,10.8c2,2.2,4.7,3.3,8.2,3.3c3.6,0,6.3-1.1,8.2-3.2
	c1.9-2.1,2.9-6,2.9-11.5c0-4.7-1-8.1-3-10.2c-2-2.2-4.8-3.2-8.3-3.2c-3.3,0-6,1.1-8,3.3C189.9,292.2,188.9,295.8,188.9,300.9z"/>
<path class="st3" d="M236.8,276h15.4l20.1,27.4V276H288v49.5h-15.6l-20-27.2v27.2h-15.5V276z"/>
<path class="st4" d="M321,309.1l15.7-0.9c0.3,2.4,1,4.2,2.1,5.4c1.7,2,4.1,3,7.3,3c2.4,0,4.2-0.5,5.5-1.5c1.3-1,1.9-2.2,1.9-3.6
	c0-1.3-0.6-2.4-1.8-3.4c-1.2-1-4-2-8.5-2.9c-7.3-1.5-12.4-3.5-15.5-6c-3.1-2.5-4.7-5.7-4.7-9.6c0-2.5,0.8-4.9,2.4-7.2s4-4,7.2-5.3
	c3.2-1.3,7.6-1.9,13.2-1.9c6.8,0,12.1,1.2,15.6,3.5c3.6,2.4,5.7,6.1,6.4,11.2l-15.6,0.8c-0.4-2.2-1.3-3.9-2.6-4.9s-3.2-1.5-5.5-1.5
	c-1.9,0-3.4,0.4-4.3,1.1c-1,0.8-1.5,1.7-1.5,2.8c0,0.8,0.4,1.5,1.2,2.1c0.8,0.7,2.6,1.3,5.5,1.8c7.2,1.4,12.4,2.9,15.5,4.4
	c3.1,1.5,5.4,3.3,6.8,5.5c1.4,2.2,2.1,4.6,2.1,7.3c0,3.2-0.9,6.1-2.8,8.8s-4.6,4.7-8,6.1c-3.4,1.4-7.7,2.1-12.9,2.1
	c-9.1,0-15.4-1.6-18.9-4.9S321.5,314.1,321,309.1z"/>
<path class="st5" d="M377.9,276h44.3v10.6h-27.7v7.9h25.7v10.1h-25.7v9.8H423v11.2h-45.1V276z"/>
<path class="st6" d="M429.8,300.8c0-8.1,2.4-14.4,7.3-18.9c4.9-4.5,11.6-6.8,20.3-6.8c8.9,0,15.8,2.2,20.6,6.6s7.2,10.6,7.2,18.6
	c0,5.8-1.1,10.5-3.2,14.2s-5.1,6.6-9.1,8.6c-4,2.1-8.9,3.1-14.9,3.1c-6,0-11-0.9-15-2.7c-4-1.8-7.2-4.6-9.6-8.4
	C431,311.4,429.8,306.6,429.8,300.8z M446.3,300.9c0,5,1,8.6,3,10.8c2,2.2,4.7,3.3,8.2,3.3c3.6,0,6.3-1.1,8.2-3.2
	c1.9-2.1,2.9-6,2.9-11.5c0-4.7-1-8.1-3-10.2c-2-2.2-4.8-3.2-8.3-3.2c-3.3,0-6,1.1-8,3.3C447.3,292.2,446.3,295.8,446.3,300.9z"/>
<path class="st7" d="M494.3,276h15.4l20.1,27.4V276h15.6v49.5h-15.6l-20-27.2v27.2h-15.5V276z"/>
<path class="st8" d="M603.6,276h16.6v26.9c0,5.6-0.5,9.9-1.6,12.9c-1.1,2.9-3.3,5.4-6.5,7.5s-7.5,3.1-12.6,3.1
	c-5.4,0-9.6-0.7-12.6-2s-5.3-3.3-6.9-5.9s-2.6-5.8-2.9-9.6l15.8-2c0,2.2,0.2,3.8,0.6,4.9c0.4,1.1,1,1.9,2,2.6
	c0.6,0.4,1.5,0.6,2.7,0.6c1.8,0,3.2-0.6,4.1-1.9c0.9-1.3,1.3-3.4,1.3-6.4V276z"/>
<path class="st9" d="M629.1,300.8c0-8.1,2.4-14.4,7.3-18.9c4.9-4.5,11.6-6.8,20.3-6.8c8.9,0,15.8,2.2,20.6,6.6s7.2,10.6,7.2,18.6
	c0,5.8-1.1,10.5-3.2,14.2s-5.1,6.6-9.1,8.6c-4,2.1-8.9,3.1-14.9,3.1c-6,0-11-0.9-15-2.7c-4-1.8-7.2-4.6-9.6-8.4
	C630.3,311.4,629.1,306.6,629.1,300.8z M645.6,300.9c0,5,1,8.6,3,10.8c2,2.2,4.7,3.3,8.2,3.3c3.6,0,6.3-1.1,8.2-3.2
	c1.9-2.1,2.9-6,2.9-11.5c0-4.7-1-8.1-3-10.2c-2-2.2-4.8-3.2-8.3-3.2c-3.3,0-6,1.1-8,3.3C646.7,292.2,645.6,295.8,645.6,300.9z"/>
<path class="st10" d="M693.6,276H709l20.1,27.4V276h15.6v49.5h-15.6l-20-27.2v27.2h-15.5V276z"/>
<path class="st11" d="M782.6,307.6v-10.3h25.5v21.1c-4.9,3.1-9.2,5.2-13,6.3c-3.8,1.1-8.2,1.7-13.4,1.7c-6.4,0-11.5-1-15.5-3
	c-4-2-7.1-5-9.3-9c-2.2-4-3.3-8.5-3.3-13.6c0-5.4,1.2-10.1,3.6-14.1c2.4-4,5.9-7,10.6-9.1c3.6-1.6,8.5-2.4,14.6-2.4
	c5.9,0,10.3,0.5,13.3,1.5c2.9,1,5.4,2.5,7.3,4.6c1.9,2.1,3.4,4.7,4.4,7.9l-15.9,2.6c-0.7-1.9-1.8-3.3-3.3-4.3c-1.6-1-3.6-1.5-6-1.5
	c-3.6,0-6.5,1.2-8.7,3.5s-3.2,6-3.2,11.1c0,5.4,1.1,9.2,3.3,11.5c2.2,2.3,5.2,3.4,9.1,3.4c1.8,0,3.6-0.2,5.3-0.7s3.6-1.3,5.8-2.5
	v-4.7H782.6z"/>
</svg>
