<?xml version="1.0" encoding="utf-8"?>
<!-- Generator: Adobe Illustrator 22.0.1, SVG Export Plug-In . SVG Version: 6.00 Build 0)  -->
<svg version="1.1" id="Layer_1" xmlns="http://www.w3.org/2000/svg" xmlns:xlink="http://www.w3.org/1999/xlink" x="0px" y="0px"
	 viewBox="0 0 315 254" style="enable-background:new 0 0 315 254;" xml:space="preserve">
<style type="text/css">
	.st0{fill:#FFFFFF;stroke:#C64A4A;stroke-miterlimit:10;}
	.st1{fill:#FFFFFF;}
</style>
<g>
	<path class="st0" d="M316,255c-105,0-210,0-315,0C1,170.3,1,85.7,1,1c105,0,210,0,315,0C316,85.7,316,170.3,316,255z M111.1,65.4
		c-0.5,0.1-1.2,0.4-1.4,0.1c-3.4-3.3-6.7,1.8-10.1,0.1c-0.3-0.1-2,1.4-2.1,2.3c-0.4,3.4-1.2,6.8,2,9.7c1.5,1.4,1.6,4.1,2.7,7.1
		c-2.8-0.5-4.1-0.8-5.8-1.1c0.9,4.3,3.1,5.3,6.5,4.3c0.9-0.3,1.8-0.8,2.7-1c13.2-2.7,26.5-5.2,39.7-8c9-1.9,17.8-4.5,26.8-6.5
		c6.8-1.5,13.8-2.3,20.6-3.8c10.4-2.3,20.7-5.2,31.2-7.5c3.5-0.8,7.4,0,10.9-0.8c8.8-2.1,17.5-5.1,26.4-7.2
		c5.6-1.3,11.3-1.7,15.9-2.3c-0.7-3.9-1.7-7.5-1.8-11.1c-0.3-6.3,0.1-12.7-0.2-19c-0.1-2.1-1.3-4.1-2.4-7.3c1-1.9,2.7-5,4.6-8.7
		c-1.5,0-2.1,0-2.7,0c-6.9,0.4-8.6,6.1-11,10.8c-1.8,3.5-4.2,5.4-8.4,5c-0.1-1.2-0.3-2.4-0.4-3.5c-0.2-1.9,1-5-2.6-4.6
		c-2.6,0.2-5.2,1.2-4.4,5.1c0.4,1.9-0.3,4-0.3,4.7c-5.1-1.3-9.6-3.3-14.1-3.2c-6.9,0.2-11.6,4.9-14.5,10.8c-2,4.1-5.8,4.3-9.1,4.9
		c-1,0.2-2.6-3-4-4.6c-0.4-0.5-1-0.7-2.1-1.4c-1.2,6-2.8,11.4-10.6,10.6c-0.1-1,0.1-2.1-0.4-2.9c-0.6-0.9-1.7-2.2-2.5-2.2
		c-0.9,0-2.6,1.5-2.6,2.1c0.9,7.3-4.7,6.5-8.2,7.5c-1.6-1.8-2.8-3.3-4-4.7c-1,2.1-2.1,4.3-3.2,6.6c-0.2-0.1-0.7-0.1-1-0.3
		c-6.1-4.9-8.8-4.1-11.9,2.9c-0.5,1.2-1.8,2.2-2.8,3.3l0.2-0.1c-1.9,0.3-3.9,0.6-5.7,0.9c-2.9-6.9-7.1-2-10.2-1
		c-3.6,1.2-6.7,4-9.8,6c-1.2,0-4.2-0.2-4.2,0c-1,6.2-3.9,3.6-7.2,1c-0.6,6.5-3.8,5-7.4,2.1C111.7,62.6,111.4,64,111.1,65.4
		L111.1,65.4z M141,146.9c1-1.2,1.9-3.2,3-3.3c8.6-1.1,17.3-3.1,25.7-2.4c13.4,1.2,26.5,4.3,39.8,6.7c2.5,0.4,4.9,1.1,8,1.8
		c-1,1-1.3,1.4-1.7,1.6c-0.9,0.4-1.9,0.5-2.9,0.9c-10.9,4.4-21.9,2.4-32.9,0.7c-12.1-1.8-24.3-3.5-36.7-5.3c0,2.3,0,4,0,5.8
		c16.7,2.1,33,4.2,49.3,6.3c22.6,2.9,45.2,5.7,67.8,8.6c16.8,2.1,33.5,5.9,50.2-0.7c1.5-0.6,2.7-1.8,4-2.7c-1.3-0.7-2.6-1.7-4-2
		c-51-9.3-102.1-18.6-153.1-27.7c-6.3-1.1-13-3.1-19.1-2.2c-22.4,3.2-44.6,7.4-66.9,11.3c-22.1,3.9-44.2,7.8-66.3,11.8
		c-1,0.2-1.9,1.2-2.9,1.9c0.9,0.5,1.7,1.4,2.7,1.5c15.1,2.2,30.3,4.4,45.4,6.5l-0.2-0.1c3.9,0.5,5.2,2.5,5.1,6.6
		c-0.3,11.6-0.1,23.3-0.1,35c0,8,0,15.9,0,24c28.3,6.1,56.2,12.2,84.4,18.3c0.1-2.1,0.3-3.5,0.3-5c0.1-30.6,0.1-61.3,0.2-91.9
		c0-2.1,0.7-4.2,1-6.3C141.1,146.8,141,146.9,141,146.9z M287,181c-48-5.5-95.7-10.9-143.6-16.4c0,20.9,0,41.1,0,61.6
		c17.8-1.5,35.2-2.9,52.5-4.4c29.2-2.4,58.3-4.9,87.5-7.2c2.9-0.2,3.6-1.3,3.6-4C286.9,201.1,287,191.4,287,181z M262.6,61.3
		c-1.8,0-2.3-0.1-2.8,0c-42.5,9.3-84.9,19.3-127.6,27.8c-23.6,4.7-45.6,12.6-65.5,25.5c17.1-3.1,34.5-6.6,52-9.4
		c10.6-1.7,21-6.1,31.9-3.4c7.9,2,15,0.5,22.1-3.2c3.7-1.9,7.6-3.2,11.5-4.8C210,83.1,235.8,72.4,262.6,61.3z M2.5,152.5
		c1.9,0,3.2,0.2,4.5,0c39-6.8,77.9-13.6,116.9-20.3c6.8-1.2,14.1-3.2,20.7-2.1c48.9,8.3,97.6,17.3,146.4,26.1
		c7.8,1.4,15.7,2.7,23.5,4.1c-6.2-2.4-12.6-6.2-18.6-5.6c-6.2,0.6-6-1.5-6.1-5.8c8.5,1.6,16.8,3.1,24.9,4.6c0-0.2-0.1-1.6-0.2-3
		c-2.2-0.5-4-0.8-5.7-1.2c-49.5-9.6-98.9-19.2-148.4-28.7c-7.3-1.4-15-3.8-22.1-2.7c-35.6,5.6-71.1,12.2-106.6,18.5
		c-9.8,1.7-19.5,3.6-29.1,5.3C2.5,145.6,2.5,148.9,2.5,152.5z M314.5,141.2c-0.8-0.4-1.1-0.6-1.4-0.7
		c-51.6-9.7-103.2-19.5-154.9-29.1c-6.6-1.2-13.6-3.2-20.1-2.3c-23.2,3.4-46.2,8-69.3,12.1c-20.8,3.7-41.6,7.4-62.4,11.1
		c-2.7,0.5-5.5,1-3.8,5.1c1.3,0,2.6,0.2,3.9,0c38.5-6.8,76.9-13.6,115.4-20.3c7-1.2,14.4-4,21.1-2.8c51,9.2,101.9,19.3,152.8,29.1
		c6.1,1.2,12.2,2.3,18.6,3.5C314.5,144.5,314.5,142.9,314.5,141.2z M143.4,243.6c1.4,0,2.6,0.1,3.7,0c14.7-1.7,29.4-3.3,44.1-5
		c30.5-3.6,61-7.2,91.5-10.8c1.4-0.2,2.7-1.4,4.1-2.1c-1.4-0.4-2.9-1.3-4.3-1.2c-15.2,1.3-30.4,2.6-45.6,4.1
		c-24.1,2.2-48.3,4.5-72.4,6.8c-7.1,0.7-14.1,1.4-21,2.1C143.4,239.7,143.4,241.5,143.4,243.6z M143,161.8c11.1,1.3,22,2.6,32.9,3.9
		c22.8,2.6,45.6,5.1,68.4,7.7c12.9,1.4,25.8,2.9,38.7,4.2c1.2,0.1,2.5-1.1,3.8-1.6c-1.2-0.6-2.3-1.6-3.5-1.7
		c-40.5-5.3-81.1-10.6-121.6-15.8c-6.2-0.8-12.4-1.5-18.7-2.3C143,158.2,143,159.7,143,161.8z M143.4,234.4
		c14.9-1.3,29.4-2.5,44-3.9c24.5-2.2,49-4.6,73.5-6.8c7.5-0.7,14.9-1.4,22.4-2.1c2.5-0.2,4.7-0.8,3.3-4.4
		c-47.8,3.9-95.4,7.9-143.2,11.8C143.4,231.2,143.4,232.6,143.4,234.4z M286.7,232.6c0-0.6,0-1.2,0.1-1.8c-1.3-0.1-2.7-0.3-4-0.2
		c-18.5,2.2-36.9,4.5-55.4,6.6c-27.1,3.1-54.2,6.1-81.2,9.2c-1.1,0.1-2.1,1.3-3.1,2c0.2,0.6,0.5,1.2,0.7,1.7
		C191.3,244.2,239,238.4,286.7,232.6z M176,103.6c-0.1,0.4-0.2,0.9-0.4,1.3c34,6.1,67.9,12.2,101.9,18.2c0.1-0.4,0.2-0.9,0.2-1.3
		C243.8,115.7,209.9,109.7,176,103.6z M188.9,98.3c-0.1,0.4-0.2,0.9-0.3,1.3c29.8,5.3,59.6,10.6,89.3,16c0.1-0.4,0.2-0.9,0.2-1.3
		C248.4,109,218.7,103.7,188.9,98.3z M277.8,108c0.1-0.4,0.2-0.9,0.2-1.3c-25.3-4.5-50.5-9-75.8-13.6c-0.1,0.4-0.2,0.9-0.2,1.3
		C227.3,99,252.5,103.5,277.8,108z M278,100.5c0.1-0.4,0.2-0.9,0.2-1.3c-21.4-3.8-42.8-7.6-64.3-11.5c-0.1,0.4-0.2,0.9-0.2,1.3
		C235.2,92.8,256.6,96.6,278,100.5z M226.2,82.3c-0.1,0.4-0.1,0.9-0.2,1.3c17.3,3.1,34.5,6.2,51.8,9.2c0.1-0.4,0.1-0.9,0.2-1.3
		C260.7,88.4,243.4,85.4,226.2,82.3z M278,85.3c0.1-0.4,0.1-0.8,0.2-1.3c-12.9-2.3-25.8-4.6-38.7-6.9c-0.1,0.4-0.2,0.9-0.2,1.3
		C252.2,80.7,265.1,83,278,85.3z M251.2,71.6c-0.1,0.4-0.2,0.8-0.4,1.3c9,1.6,18,3.2,27,4.9c0.1-0.4,0.2-0.8,0.2-1.2
		C269.1,74.8,260.2,73.2,251.2,71.6z M263.5,66.3c-0.1,0.4-0.1,0.9-0.2,1.3c4.8,0.8,9.6,1.6,14.4,2.4c0.1-0.4,0.1-0.8,0.2-1.2
		C273.1,67.9,268.3,67.1,263.5,66.3z"/>
	<path d="M50.4,166.2c-15.1-2.2-30.3-4.3-45.4-6.5c-0.9-0.1-1.8-1-2.7-1.5c1-0.6,1.9-1.7,2.9-1.9c22.1-4,44.2-8,66.3-11.8
		c22.3-3.9,44.5-8.1,66.9-11.3c6.1-0.9,12.8,1.1,19.1,2.2c51.1,9.2,102.1,18.4,153.1,27.7c1.4,0.3,2.7,1.3,4,2
		c-1.3,0.9-2.5,2.1-4,2.7c-16.6,6.5-33.4,2.8-50.2,0.7c-22.6-2.9-45.2-5.8-67.8-8.6c-16.3-2.1-32.6-4.2-49.3-6.3c0-1.9,0-3.6,0-5.8
		c12.4,1.8,24.5,3.4,36.7,5.3c11,1.7,22,3.8,32.9-0.7c0.9-0.4,1.9-0.5,2.9-0.9c0.4-0.2,0.7-0.6,1.7-1.6c-3-0.7-5.5-1.3-8-1.8
		c-13.3-2.4-26.4-5.5-39.8-6.7c-8.4-0.8-17.2,1.3-25.7,2.4c-1.1,0.1-2,2.2-3,3.3c-0.6-1.2-1-3.3-1.7-3.5c-7.3-1.4-14.8-3.9-22-3.2
		c-14.3,1.3-28.5,4.4-42.7,6.9c-1.6,0.3-3.1,0.8-5.4,1.5c25,10.7,48.4,2.9,71.9-1.7c-0.4,2.1-1,4.2-1,6.3
		c-0.1,30.6-0.1,61.3-0.2,91.9c0,1.5-0.2,2.9-0.3,5c-28.2-6.1-56-12.2-84.4-18.3c0-8.1,0-16,0-24c0-11.7-0.2-23.3,0.1-35
		c0.1-4.1-1.1-6.1-5.1-6.6c1.4-0.2,4.1-0.1,4.2-0.5c1.2-5.1,5.6-3.7,8.8-4.5c3.8-0.9,7.6-1.6,12.1-2.5c-22.2-9.4-43.2-5.1-64.3,0.3
		c3.5,1.2,7,1.8,10.5,2.4C31.2,162.8,40.8,164.5,50.4,166.2z M223.4,155.8c1.8-1.2,3.5-2.3,5.3-3.5c-7.8-1.7-14.5,1.2-21.5,2.7
		c0.1,0.8,0.2,1.6,0.3,2.4c4.5-0.5,9.1-1,13.6-1.5c-2.1,4.2,1.7,2.9,3.2,3.1c5.9,1,12,1.1,17.7,2.6c5.4,1.4,11-1.2,16.3,2.1
		c2,1.2,5.7-0.4,8.7-0.8c0.5,0.7,0.8,1.9,1.4,2.2c6.8,2.2,14.9-0.2,20.6,6c6.3-1.3,12.6-2.6,20.1-4.1c-1.8-1.2-2.1-1.7-2.5-1.8
		c-13.2-1.6-26.1-7.4-39.7-2.2c1.9-0.9,3.9-1.8,6.8-3.2c-8.5-1.7-15.8-3.2-23-4.6C241.5,153.6,232.4,150.9,223.4,155.8z
		 M137.4,175.9c-1.3-0.1-2.1-0.4-2.9-0.3c-9.6,1-19.2,2-28.7,3.3c-1.2,0.2-2.8,2.6-2.9,4.1c-0.3,8.1-0.1,16.3-0.1,24.4
		c0,7.7,0,7.9,7.6,9.2c8.8,1.5,17.6,2.7,26.9,4.1C137.4,205.4,137.4,190.8,137.4,175.9z M76.6,181.8c0,9.4-0.2,18.1,0.2,26.7
		c0,1.3,2.1,3.2,3.6,3.5c5.8,1.2,11.8,1.8,17.7,2.9c3.1,0.6,3.9-0.7,3.8-3.4c0-6.2,0-12.3,0-18.5c0-4.4,0-8.8,0-13.9
		C93,180.1,85.1,180.9,76.6,181.8z M74.9,181.5c-5.4,0.8-10.4,1.3-15.4,2.4c-0.8,0.2-1.8,2.2-1.9,3.4c-0.2,6-0.2,12,0,17.9
		c0.1,1.3,1.3,3.4,2.3,3.6c4.8,1,9.7,1.5,14.9,2.3C74.9,201.1,74.9,191.7,74.9,181.5z M126.1,139.1c11.7,4.6,22.1,3.6,32.5,0.7
		C148.4,136.5,138,135.1,126.1,139.1z M86.6,155.8c-10.9-1.9-21.3-7.7-32.8-4.2C64.8,153,75.2,158.6,86.6,155.8z"/>
	<path d="M156.4,51.8c0.9-1.1,2.2-2,2.7-3.2c3.1-7.1,5.8-7.8,11.9-2.9c0.3,0.3,0.9,0.3,1,0.3c1.1-2.3,2.1-4.4,3.2-6.6
		c1.2,1.4,2.4,2.8,4,4.7c3.5-1,9.1-0.1,8.2-7.5c-0.1-0.7,1.6-2.1,2.6-2.1c0.8,0,1.9,1.2,2.5,2.2c0.4,0.8,0.3,1.9,0.4,2.9
		c7.7,0.9,9.4-4.6,10.6-10.6c1,0.7,1.7,1,2.1,1.4c1.4,1.6,3,4.7,4,4.6c3.4-0.6,7.1-0.8,9.1-4.9c2.9-5.9,7.7-10.6,14.5-10.8
		c4.4-0.1,8.9,2,14.1,3.2c0.1-0.8,0.7-2.9,0.3-4.7c-0.7-3.9,1.8-4.8,4.4-5.1c3.6-0.3,2.3,2.7,2.6,4.6c0.1,1.1,0.3,2.3,0.4,3.5
		c4.2,0.3,6.6-1.6,8.4-5c2.5-4.7,4.2-10.5,11-10.8c0.6,0,1.2,0,2.7,0c-2,3.7-3.6,6.8-4.6,8.7c1.1,3.1,2.3,5.2,2.4,7.3
		c0.3,6.3-0.1,12.7,0.2,19c0.2,3.6,1.2,7.2,1.8,11.1c-4.6,0.6-10.3,1-15.9,2.3c-8.9,2.1-17.5,5-26.4,7.2c-3.5,0.8-7.4,0-10.9,0.8
		c-10.4,2.3-20.8,5.1-31.2,7.5c-6.8,1.5-13.8,2.3-20.6,3.8c-9,2-17.8,4.6-26.8,6.5c-13.2,2.9-26.5,5.4-39.7,8
		c-0.9,0.2-1.8,0.7-2.7,1c-3.4,1-5.7,0-6.5-4.3c1.7,0.3,3,0.6,5.8,1.1c-1.1-3-1.2-5.8-2.7-7.1c-3.2-3-2.4-6.3-2-9.7
		c0.1-0.9,1.8-2.5,2.1-2.3c3.4,1.7,6.8-3.5,10.1-0.1c0.2,0.2,1-0.1,1.4-0.1c-4.6,2.2-4.6,5.6-2.3,9.9c1.3-1,2.4-2.2,2.5-3.6
		c0.2-2.1-0.2-4.2-0.3-6.3c0.3-1.4,0.6-2.8,1-4.7c3.6,2.8,6.8,4.4,7.4-2.1c3.2,2.6,6.1,5.2,7.2-1c0-0.3,3,0,4.2,0
		c3.1-2,6.2-4.8,9.8-6c3.1-1,7.3-5.9,10.2,1c1.9-0.3,3.8-0.6,5.7-0.9c-3.1,1.1-6.1,2.3-9.2,3.3c-5.9,1.9-6.8,4-3.9,10.9
		c5.2-0.7,10.6-1.4,16.1-2.1c-4.7,1.9-9.4,3.5-14,5.7c-1.4,0.7-2.3,2.6-3.4,3.9c1.4,0.4,2.9,1,4.3,1.3c1.1,0.2,2.3,0.1,3.4,0.1
		c3.2,0,6.4,0,9.3,0c-0.2-2.7-0.3-4.4-0.4-6.1c1.4,0.5,2.8,1.4,4.3,1.5c1.1,0.1,2.9-0.3,3.3-1.1c0.9-1.6,1.1-3.6,1.5-5.4
		c-1-0.2-2.1-0.7-3.1-0.6c-1.8,0.1-3.6,0.6-5.3,0.9c2-0.8,4-1.6,5.2-2.1c-2.1-3.1-3.9-6.1-5.9-8.9C158.1,52.2,157.1,52.1,156.4,51.8
		z M237.6,27.6c0-0.8,0.3-1.9-0.1-2.2c-2.1-1.9-9.2,0.5-9.8,3.4c-0.1,0.3,0.8,0.8,1.3,1.2c-6.5,2.5-9.6,9.7-7.1,16.6
		c3-0.6,6.1-1.1,9.2-1.7c-3.1,1.2-6.3,2.3-9.4,3.5c2.7,8.1,6.6,9.5,13,5c1.2-0.8,2.4-1.9,3.2-3.1c2.5-4.3,5-3.2,7.9-0.1
		c-0.8,1.7-1.7,3.4-2.6,5.2c4.7-0.6,6-6,3.3-13.8c-1.7,0.4-3.4,0.8-5.2,1.2c2-2.4,7.2-1.5,6.5-6.8c-0.5-3.5-0.1-7.1-0.1-10.7
		C243.7,26.2,240.7,26.9,237.6,27.6z M274.2,17.5c-0.5-0.3-0.9-0.5-1.4-0.8c-1.3,1-2.9,1.9-3.8,3.2c-1.8,2.6-3.4,5.3-4.6,8.2
		c-0.6,1.4-0.8,3.7,0,4.6c1,1.1,3.3,1.9,4.7,1.5c1.9-0.5,4.6-2,4.8-3.5C274.6,26.4,274.2,21.9,274.2,17.5z M258.9,37.9
		c-4.9,4.7-4.9,9.7-3.5,15.5c4.4-1,8.4-1.9,13.2-3C265,45.8,262.1,41.9,258.9,37.9z M178.3,55.5c8.9-0.8,10.6-0.9,8.3-11.8
		C177.5,44.9,176.9,45.8,178.3,55.5z M172.7,59.9c0-4.3,0-8.1,0-12.3c-2.5,0.6-4.5,0.8-6.3,1.6c-1.3,0.6-3.2,1.9-3.2,3
		c-0.1,1.3,1.3,2.9,2.5,3.8C167.7,57.5,170,58.5,172.7,59.9z M186.7,59.6c-9.2,0.8-10.3,2.2-8.2,10C187.6,69,188.3,68.2,186.7,59.6z
		 M200.5,40.2c-8.3,0-10,3.7-6.7,14.7C199.2,51,198.2,45,200.5,40.2z M207.9,36.8c1.8,4.5,3.4,8.5,5,12.5c0.6-0.1,1.2-0.3,1.8-0.4
		c0.4-4.6,0.8-9.1,1.2-14.4C213.2,35.3,211,35.9,207.9,36.8z M138.3,58.8c-0.6-0.1-1.2-0.3-1.8-0.4c-1,2.5-2.2,4.9-2.8,7.5
		c-0.3,1.2,0.7,2.7,1.1,4c1.2-1.1,3.1-2,3.3-3.3C138.7,64,138.3,61.4,138.3,58.8z M214.6,49.9c-0.6,0.2-1.1,0.4-1.7,0.6
		c1.4,3.5,2.7,7,4.5,10.3c0.3,0.6,3-0.1,4.7-0.2C219.3,56.6,217,53.3,214.6,49.9z M267,36.2c2.6,3,4.3,5,6.9,8.1c0-4.1,0-6.8,0-9.9
		C271.6,34.9,269.8,35.4,267,36.2z M210.9,62.8c-4.5-3-9.8-1.5-11.7,2.7C203.4,64.6,207.1,63.7,210.9,62.8z M125.9,61.3
		c-1.6,1.3-3.2,2-3.2,2.6c0.3,2.7,1,5.3,1.6,8c0.5-0.1,1-0.2,1.6-0.3C125.9,68.6,125.9,65.6,125.9,61.3z"/>
	<path d="M287,181c0,10.4-0.1,20.1,0,29.7c0,2.7-0.7,3.8-3.6,4c-29.2,2.3-58.3,4.8-87.5,7.2c-17.4,1.4-34.8,2.9-52.5,4.4
		c0-20.6,0-40.8,0-61.6C191.3,170.1,239,175.5,287,181z M145.6,198.1C145.6,198.1,145.5,198.1,145.6,198.1c-0.1,6.3-0.2,12.7,0.1,19
		c0.1,1.3,1.7,3.6,2.6,3.6c10.1-0.4,20.3-1.2,30.4-1.8c2.8-0.2,3.5-1.8,3.5-4.4c-0.1-10.5-0.1-21,0-31.5c0-3.1-1-4.6-4.1-4.8
		c-9.5-0.8-18.9-1.6-28.3-2.5c-3.1-0.3-4.2,0.8-4.1,3.9C145.7,185.8,145.6,191.9,145.6,198.1z M182.9,198.7c0,4.8,0.2,9.6-0.1,14.5
		c-0.2,3.8,0.8,5.5,5,5.1c9.6-0.9,19.2-1.3,28.8-2.2c1.3-0.1,3.3-2.3,3.3-3.6c0.3-9,0.1-17.9,0.2-26.9c0-2.7-1.2-3.7-3.9-3.9
		c-9.6-0.8-19.2-1.7-28.8-2.7c-3.6-0.4-4.8,0.9-4.6,4.4C183.1,188.4,182.9,193.6,182.9,198.7z M221,215.7
		c10.7-0.6,20.4-1.1,30.2-1.9c1.1-0.1,3-2.2,3-3.5c0.3-7.3,0.3-14.7-0.1-22c-0.1-1.3-2.1-3.4-3.3-3.5c-8.6-1-17.2-1.5-25.8-2.3
		c-2.3-0.2-4,0-4,2.9C221,195.2,221,205,221,215.7z M255.8,213.5c9.1-0.6,17.8-1.1,26.5-2c1-0.1,2.6-2.2,2.6-3.4
		c0.3-5.8,0.2-11.6,0-17.4c0-1-1.2-2.8-2-2.9c-9-1.1-18-1.9-27.1-2.7C255.8,195,255.8,203.9,255.8,213.5z"/>
	<path d="M262.6,61.3c-26.8,11.1-52.6,21.8-78.4,32.5c-3.8,1.6-7.8,2.9-11.5,4.8c-7,3.6-14.2,5.1-22.1,3.2
		c-11-2.7-21.4,1.7-31.9,3.4c-17.5,2.8-34.9,6.3-52,9.4c19.9-12.9,41.8-20.8,65.5-25.5c42.7-8.5,85.1-18.4,127.6-27.8
		C260.3,61.2,260.8,61.3,262.6,61.3z"/>
	<path d="M2.5,152.5c0-3.7,0-7,0-10.9c9.6-1.8,19.3-3.6,29.1-5.3c35.5-6.3,71-12.9,106.6-18.5c7-1.1,14.8,1.3,22.1,2.7
		c49.5,9.5,98.9,19.1,148.4,28.7c1.8,0.3,3.6,0.7,5.7,1.2c0.1,1.4,0.2,2.8,0.2,3c-8.1-1.5-16.4-3-24.9-4.6c0.1,4.4-0.1,6.4,6.1,5.8
		c6-0.6,12.4,3.2,18.6,5.6c-7.8-1.4-15.7-2.7-23.5-4.1c-48.8-8.8-97.5-17.8-146.4-26.1c-6.6-1.1-13.8,0.9-20.7,2.1
		C84.9,138.9,46,145.7,7,152.5C5.7,152.7,4.3,152.5,2.5,152.5z M261.9,150.1c0.4-0.4,0.9-0.9,1.3-1.3c-0.4-1.8-0.7-3.7-1.1-5.9
		c-10.8-1.8-21.7-3.4-32.4-5.5c-2.5-0.5-5-1.6-5.2,1.7c-0.1,1.3,2.6,3.6,4.4,4.1c4.8,1.4,9.7,2.1,14.6,3c2.8,0.5,5.7,0.8,8.6,1.2
		c0-1.2,0-2,0-1.4C255.2,147.3,258.5,148.7,261.9,150.1z M60.2,133.8c-4.3,0.7-8.7,0.6-12.2,2.2c-3.4,1.6-9.7-2.1-9.7,3.8
		c-1.8-0.5-3.5-1-5.2-1.5c-0.4,2.1-0.9,4.2-1.4,6.6c7.6-1.1,13.9-2,20.2-2.8C61.7,140.8,61.7,140.7,60.2,133.8z M175.9,130.8
		c-0.3-0.9-0.3-2.2-0.9-2.7c-1.1-0.8-2.5-1.5-3.8-1.6c-0.8,0-2.1,1.4-2.1,2.2c0,1.1,0.7,2.5,1.6,3.4c0.7,0.7,2,0.9,3.1,1.1
		c6.5,1.2,13,2.6,19.5,3.4c1.6,0.2,3.5-1.1,5.2-1.7c-1.3-1.4-2.3-3.7-3.9-4.2c-4.1-1.3-8.5-2-12.8-2.8
		C179.3,127.6,176.6,126.9,175.9,130.8z M141.8,127c8.9,1.7,17.3,3.2,26.1,4.9c-0.3-2.5-0.5-4.1-0.6-5.6c-4.3-1-8.2-2.1-12.2-3
		c-4.3-0.9-8.6-1.5-13.3-2.3C141.8,123.1,141.8,124.8,141.8,127z M4.4,148.8c0.6,0.5,1.1,1,1.7,1.4c1.6-1.1,3.9-3.6,4.7-3.2
		c4.3,2.3,8.3-0.4,12.4-0.2c6.7,0.2,7.4-1.2,5.3-8.3c-5.2,1.7-10.3,3.4-15.4,5c-2.1-0.7-4.8-1.4-6.8-0.4
		C5.1,143.8,5,146.8,4.4,148.8z M287.4,148.1c-6.3-1.2-12.1-1.9-17.7-3.4c-2.7-0.7-5-1.3-5.2,1.8c-0.1,1.3,2.5,3.4,4.4,4.2
		c4.2,1.8,9.1-0.3,13.3,2.5c1.3,0.9,3.7,0.2,5.6,0.2C287.7,151.5,287.5,149.6,287.4,148.1z M200,136.5c2.4,1.1,3.9,2.2,5.7,2.6
		c4.9,1.1,9.9,2,14.8,2.7c0.7,0.1,2.4-1.8,2.3-2.7c-0.2-3.2-5-5.3-9.3-4.3c-0.7,0.1-1.5,0.4-2.2,0.2c-3.7-1-7.3-2.2-11.3-3.4
		C200,134,200,135.6,200,136.5z M79.4,136.2c4.3-0.5,8.5-0.9,12.7-1.4c6.6-0.7,6.8-1,5.3-8c-4.8,1.2-9.5,2.6-14.3,3.6
		C77.4,131.5,77.3,131.4,79.4,136.2z M135.8,120.4c-1.2,1.1-2.3,2.4-2.4,2.3c-3.5-2.6-6.8,0.2-10.1,0.1c-6.7-0.1-4.1,3.7-3.8,7.2
		c6.7-1.4,12.8-2.7,19.4-4C137.8,124.1,137,122.5,135.8,120.4z M100.5,131.7c1.8,0.1,2.8,0.4,3.8,0.3c4-0.5,8.1-0.9,11.9-2.1
		c0.7-0.2,0.3-3.8,0.4-6.1c-4.2,0.7-7.7,1.6-11.3,1.8C100.6,125.9,99,127.8,100.5,131.7z M62.7,134.1c0.1,1.6,0.3,3.3,0.4,5
		c4.7-0.7,8.9-1.3,13.2-1.9c0.1-2.2,0.3-4.1,0.4-6.7C71.9,131.8,67.6,132.9,62.7,134.1z"/>
	<path d="M314.5,141.2c0,1.7,0,3.3,0,5.7c-6.4-1.2-12.5-2.3-18.6-3.5c-50.9-9.8-101.8-19.8-152.8-29.1c-6.6-1.2-14.1,1.6-21.1,2.8
		c-38.5,6.7-77,13.6-115.4,20.3c-1.3,0.2-2.6,0-3.9,0c-1.7-4.1,1.1-4.6,3.8-5.1c20.8-3.7,41.6-7.4,62.4-11.1
		c23.1-4.1,46.1-8.7,69.3-12.1c6.4-1,13.4,1,20.1,2.3c51.6,9.6,103.3,19.4,154.9,29.1C313.4,140.5,313.7,140.8,314.5,141.2z"/>
	<path d="M143.4,243.6c0-2.1,0-3.9,0-6.2c6.9-0.7,14-1.4,21-2.1c24.1-2.3,48.3-4.6,72.4-6.8c15.2-1.4,30.4-2.8,45.6-4.1
		c1.4-0.1,2.8,0.8,4.3,1.2c-1.4,0.7-2.7,1.9-4.1,2.1c-30.5,3.7-61,7.3-91.5,10.8c-14.7,1.7-29.4,3.4-44.1,5
		C146,243.7,144.9,243.6,143.4,243.6z"/>
	<path d="M143,161.8c0-2.2,0-3.7,0-5.7c6.3,0.8,12.5,1.5,18.7,2.3c40.5,5.3,81.1,10.5,121.6,15.8c1.2,0.2,2.3,1.1,3.5,1.7
		c-1.3,0.6-2.6,1.8-3.8,1.6c-12.9-1.3-25.8-2.7-38.7-4.2c-22.8-2.6-45.6-5.1-68.4-7.7C165,164.5,154.1,163.2,143,161.8z"/>
	<path d="M143.4,234.4c0-1.8,0-3.2,0-5.3c47.7-3.9,95.4-7.9,143.2-11.8c1.3,3.6-0.9,4.1-3.3,4.4c-7.4,0.7-14.9,1.4-22.4,2.1
		c-24.5,2.3-49,4.6-73.5,6.8C172.8,231.8,158.3,233.1,143.4,234.4z"/>
	<path d="M286.7,232.6c-47.7,5.8-95.3,11.7-143,17.5c-0.2-0.6-0.5-1.2-0.7-1.7c1-0.7,2-1.8,3.1-2c27.1-3.1,54.2-6.1,81.2-9.2
		c18.5-2.1,36.9-4.5,55.4-6.6c1.3-0.2,2.7,0.1,4,0.2C286.7,231.3,286.7,231.9,286.7,232.6z"/>
	<path d="M176,103.6c33.9,6.1,67.8,12.1,101.7,18.2c-0.1,0.4-0.2,0.9-0.2,1.3c-34-6.1-67.9-12.2-101.9-18.2
		C175.8,104.5,175.9,104,176,103.6z"/>
	<path d="M188.9,98.3c29.7,5.3,59.5,10.6,89.2,16c-0.1,0.4-0.2,0.9-0.2,1.3c-29.8-5.3-59.6-10.6-89.3-16
		C188.7,99.2,188.8,98.8,188.9,98.3z"/>
	<path d="M277.8,108c-25.3-4.5-50.5-9.1-75.8-13.6c0.1-0.4,0.2-0.9,0.2-1.3c25.3,4.5,50.5,9,75.8,13.6
		C277.9,107.1,277.9,107.6,277.8,108z"/>
	<path d="M278,100.5c-21.4-3.8-42.8-7.7-64.3-11.5c0.1-0.4,0.2-0.9,0.2-1.3c21.4,3.8,42.8,7.6,64.3,11.5
		C278.2,99.6,278.1,100,278,100.5z"/>
	<path d="M226.2,82.3c17.3,3.1,34.5,6.2,51.8,9.3c-0.1,0.4-0.1,0.9-0.2,1.3c-17.3-3.1-34.5-6.2-51.8-9.2
		C226,83.1,226.1,82.7,226.2,82.3z"/>
	<path d="M278,85.3c-12.9-2.3-25.8-4.6-38.7-6.9c0.1-0.4,0.2-0.9,0.2-1.3c12.9,2.3,25.8,4.6,38.7,6.9
		C278.1,84.4,278.1,84.9,278,85.3z"/>
	<path d="M251.2,71.6c8.9,1.6,17.9,3.2,26.8,4.9c-0.1,0.4-0.2,0.8-0.2,1.2c-9-1.6-18-3.2-27-4.9C251,72.4,251.1,72,251.2,71.6z"/>
	<path d="M263.5,66.3c4.8,0.8,9.6,1.7,14.4,2.5c-0.1,0.4-0.1,0.8-0.2,1.2c-4.8-0.8-9.6-1.6-14.4-2.4
		C263.4,67.1,263.4,66.7,263.5,66.3z"/>
	<path class="st1" d="M137.4,175.9c0,14.8,0,29.5,0,44.9c-9.3-1.4-18.1-2.6-26.9-4.1c-7.7-1.3-7.6-1.4-7.6-9.2
		c0-8.2-0.1-16.3,0.1-24.4c0-1.4,1.7-3.9,2.9-4.1c9.5-1.4,19.1-2.3,28.7-3.3C135.3,175.6,136.1,175.8,137.4,175.9z"/>
	<path class="st1" d="M76.6,181.8c8.5-0.9,16.4-1.7,25.3-2.7c0,5.1,0,9.5,0,13.9c0,6.2,0,12.3,0,18.5c0,2.7-0.7,4-3.8,3.4
		c-5.9-1.1-11.8-1.7-17.7-2.9c-1.4-0.3-3.5-2.3-3.6-3.5C76.5,199.9,76.6,191.2,76.6,181.8z"/>
	<path class="st1" d="M141.1,146.8c-23.5,4.6-46.9,12.4-71.9,1.7c2.3-0.6,3.8-1.2,5.4-1.5c14.2-2.4,28.4-5.5,42.7-6.9
		c7.2-0.7,14.7,1.9,22,3.2c0.8,0.1,1.2,2.3,1.7,3.5C141,146.9,141.1,146.8,141.1,146.8z"/>
	<path class="st1" d="M50.4,166.2c-9.6-1.7-19.3-3.4-28.9-5c-3.5-0.6-7-1.2-10.5-2.4c21.1-5.4,42.1-9.7,64.3-0.3
		c-4.5,0.9-8.4,1.6-12.1,2.5c-3.2,0.8-7.6-0.6-8.8,4.5c-0.1,0.5-2.7,0.4-4.2,0.5C50.3,166.1,50.4,166.2,50.4,166.2z"/>
	<path class="st1" d="M74.9,181.5c0,10.2,0,19.6,0,29.6c-5.2-0.7-10.1-1.2-14.9-2.3c-1-0.2-2.3-2.3-2.3-3.6c-0.2-6-0.2-12,0-17.9
		c0-1.2,1-3.2,1.9-3.4C64.5,182.9,69.6,182.3,74.9,181.5z"/>
	<path class="st1" d="M267,163c-2.9,0.3-6.7,2-8.7,0.8c-5.3-3.3-11-0.6-16.3-2.1c-5.7-1.5-11.8-1.6-17.7-2.6
		c-1.4-0.2-5.3,1.1-3.2-3.1c0.8-0.1,1.5-0.1,2.3-0.2c9-4.9,18.1-2.2,27.2-0.4c7.3,1.4,14.6,2.9,23,4.6c-2.9,1.4-4.8,2.3-6.8,3.2
		L267,163z"/>
	<path class="st1" d="M266.9,163.1c13.5-5.2,26.5,0.5,39.7,2.2c0.4,0.1,0.8,0.5,2.5,1.8c-7.5,1.5-13.8,2.8-20.1,4.1
		c-5.6-6.2-13.8-3.8-20.6-6c-0.6-0.2-1-1.4-1.4-2.2C267,163,266.9,163.1,266.9,163.1z"/>
	<path class="st1" d="M126.1,139.1c11.9-4,22.3-2.6,32.5,0.7C148.2,142.7,137.8,143.7,126.1,139.1z"/>
	<path class="st1" d="M86.6,155.8c-11.4,2.8-21.8-2.8-32.8-4.2C65.3,148.1,75.7,153.9,86.6,155.8z"/>
	<path class="st1" d="M223.4,155.8c-0.8,0.1-1.5,0.1-2.3,0.2c-4.5,0.5-9.1,1-13.6,1.5c-0.1-0.8-0.2-1.6-0.3-2.4
		c7-1.5,13.7-4.4,21.5-2.7C226.9,153.4,225.2,154.6,223.4,155.8z"/>
	<path class="st1" d="M231.2,44.9c-3.1,0.6-6.2,1.1-9.2,1.7c-2.6-6.9,0.6-14.1,7.1-16.6c2.8-0.8,5.7-1.6,8.5-2.4
		c3-0.7,6-1.4,10.1-2.3c0,3.6-0.4,7.2,0.1,10.7c0.7,5.3-4.5,4.4-6.5,6.8C238,43.5,234.6,44.2,231.2,44.9z"/>
	<path class="st1" d="M231.2,44.9c3.4-0.7,6.7-1.4,10.1-2.1c1.7-0.4,3.5-0.8,5.2-1.2c2.7,7.8,1.5,13.2-3.3,13.8
		c0.9-1.9,1.8-3.6,2.6-5.2c-2.9-3-5.4-4.2-7.9,0.1c-0.7,1.2-2,2.2-3.2,3.1c-6.4,4.5-10.3,3.1-13-5C224.9,47.2,228.1,46.1,231.2,44.9
		z"/>
	<path class="st1" d="M159.4,63.7c-5.4,0.7-10.8,1.4-16.1,2.1c-2.9-6.9-2-9,3.9-10.9c3.1-1,6.1-2.2,9.2-3.3c0,0-0.1,0.1-0.1,0.1
		c0.7,0.3,1.7,0.5,2.1,1c2,2.8,3.9,5.8,5.9,8.9c-1.2,0.5-3.2,1.3-5.2,2.1L159.4,63.7z"/>
	<path class="st1" d="M159.3,63.9c1.8-0.3,3.5-0.8,5.3-0.9c1-0.1,2.1,0.4,3.1,0.6c-0.5,1.8-0.6,3.8-1.5,5.4
		c-0.4,0.8-2.2,1.2-3.3,1.1c-1.5-0.2-2.9-1-4.3-1.5c0.1,1.7,0.2,3.3,0.4,6.1c-2.9,0-6.1,0-9.3,0c-1.1,0-2.3,0.2-3.4-0.1
		c-1.5-0.3-2.9-0.9-4.3-1.3c1.1-1.3,2-3.2,3.4-3.9c4.5-2.1,9.3-3.8,14-5.7C159.4,63.7,159.3,63.9,159.3,63.9z"/>
	<path class="st1" d="M274.2,17.5c0,4.4,0.4,8.9-0.2,13.2c-0.2,1.4-3,3-4.8,3.5c-1.4,0.4-3.8-0.4-4.7-1.5c-0.8-0.9-0.6-3.2,0-4.6
		c1.2-2.9,2.8-5.6,4.6-8.2c0.9-1.3,2.5-2.1,3.8-3.2C273.3,16.9,273.8,17.2,274.2,17.5z"/>
	<path class="st1" d="M258.9,37.9c3.1,4,6.1,7.9,9.7,12.5c-4.8,1.1-8.8,2-13.2,3C254,47.6,254,42.6,258.9,37.9z"/>
	<path class="st1" d="M178.3,55.5c-1.4-9.7-0.7-10.6,8.3-11.8C188.9,54.6,187.2,54.7,178.3,55.5z"/>
	<path class="st1" d="M172.7,59.9c-2.7-1.4-5-2.4-7-3.8c-1.2-0.9-2.6-2.6-2.5-3.8c0-1.1,1.9-2.4,3.2-3c1.7-0.8,3.8-1,6.3-1.6
		C172.7,51.8,172.7,55.6,172.7,59.9z"/>
	<path class="st1" d="M186.7,59.6c1.6,8.6,0.9,9.4-8.2,10C176.4,61.8,177.6,60.4,186.7,59.6z"/>
	<path class="st1" d="M200.5,40.2c-2.3,4.8-1.3,10.8-6.7,14.7C190.5,43.8,192.2,40.1,200.5,40.2z"/>
	<path class="st1" d="M207.9,36.8c3-0.9,5.3-1.5,8-2.3c-0.4,5.3-0.8,9.8-1.2,14.4c-0.6,0.1-1.2,0.3-1.8,0.4
		C211.3,45.3,209.7,41.3,207.9,36.8z"/>
	<path class="st1" d="M138.3,58.8c0,2.6,0.4,5.3-0.2,7.8c-0.3,1.3-2.2,2.2-3.3,3.3c-0.4-1.4-1.4-2.8-1.1-4c0.6-2.6,1.8-5,2.8-7.5
		C137.1,58.5,137.7,58.6,138.3,58.8z"/>
	<path class="st1" d="M214.6,49.9c2.4,3.3,4.7,6.7,7.5,10.7c-1.7,0.1-4.4,0.8-4.7,0.2c-1.8-3.3-3-6.8-4.5-10.3
		C213.5,50.4,214.1,50.2,214.6,49.9z"/>
	<path class="st1" d="M267,36.2c2.8-0.8,4.7-1.2,6.9-1.8c0,3.1,0,5.8,0,9.9C271.3,41.2,269.5,39.1,267,36.2z"/>
	<path class="st1" d="M237.6,27.6c-2.8,0.8-5.7,1.6-8.5,2.4c-0.4-0.4-1.3-0.9-1.3-1.2c0.6-2.9,7.6-5.3,9.8-3.4
		C238,25.7,237.6,26.8,237.6,27.6z"/>
	<path class="st1" d="M111,65.4c0.1,2.1,0.6,4.3,0.3,6.3c-0.2,1.3-1.3,2.6-2.5,3.6C106.5,71,106.5,67.6,111,65.4
		C111.1,65.4,111,65.4,111,65.4z"/>
	<path class="st1" d="M210.9,62.8c-3.7,0.9-7.5,1.7-11.7,2.7C201,61.3,206.4,59.8,210.9,62.8z"/>
	<path class="st1" d="M125.9,61.3c0,4.2,0,7.3,0,10.3c-0.5,0.1-1,0.2-1.6,0.3c-0.6-2.7-1.3-5.3-1.6-8
		C122.7,63.4,124.3,62.6,125.9,61.3z"/>
	<path class="st1" d="M145.6,198.1c0-6.2,0.1-12.3,0-18.5c-0.1-3.1,1.1-4.2,4.1-3.9c9.4,0.9,18.9,1.7,28.3,2.5
		c3.1,0.2,4.2,1.7,4.1,4.8c-0.2,10.5-0.1,21,0,31.5c0,2.6-0.7,4.2-3.5,4.4c-10.1,0.7-20.3,1.4-30.4,1.8c-0.8,0-2.5-2.3-2.6-3.6
		C145.4,210.8,145.5,204.4,145.6,198.1C145.5,198.1,145.6,198.1,145.6,198.1z"/>
	<path class="st1" d="M182.9,198.7c0-5.2,0.1-10.3,0-15.5c-0.1-3.5,1.1-4.8,4.6-4.4c9.6,1,19.2,2,28.8,2.7c2.7,0.2,3.9,1.2,3.9,3.9
		c-0.1,9,0.1,17.9-0.2,26.9c0,1.3-2.1,3.5-3.3,3.6c-9.6,0.9-19.2,1.3-28.8,2.2c-4.2,0.4-5.2-1.3-5-5.1
		C183.1,208.4,182.9,203.6,182.9,198.7z"/>
	<path class="st1" d="M221,215.7c0-10.7,0-20.5,0-30.3c0-2.9,1.6-3.1,4-2.9c8.6,0.8,17.2,1.3,25.8,2.3c1.3,0.1,3.3,2.3,3.3,3.5
		c0.3,7.3,0.3,14.7,0.1,22c0,1.2-1.9,3.4-3,3.5C241.4,214.6,231.6,215.1,221,215.7z"/>
	<path class="st1" d="M255.8,213.5c0-9.6,0-18.5,0-28.4c9.2,0.9,18.2,1.7,27.1,2.7c0.8,0.1,1.9,1.8,2,2.9c0.2,5.8,0.3,11.6,0,17.4
		c-0.1,1.2-1.6,3.3-2.6,3.4C273.6,212.4,264.9,212.9,255.8,213.5z"/>
	<path class="st1" d="M261.9,150.1c-3.3-1.4-6.7-2.8-9.8-4.1c0-0.6,0,0.2,0,1.4c-2.9-0.4-5.7-0.7-8.6-1.2c-4.9-0.9-9.9-1.6-14.6-3
		c-1.8-0.5-4.5-2.8-4.4-4.1c0.2-3.3,2.7-2.2,5.2-1.7c10.7,2.1,21.6,3.7,32.4,5.5c0.4,2.3,0.8,4.1,1.1,5.9
		C262.8,149.2,262.3,149.6,261.9,150.1z"/>
	<path class="st1" d="M60.2,133.8c1.5,6.9,1.5,6.9-8.3,8.3c-6.3,0.9-12.6,1.8-20.2,2.8c0.5-2.4,0.9-4.5,1.4-6.6
		c1.7,0.5,3.5,1,5.2,1.5c0.1-5.9,6.4-2.2,9.7-3.8C51.5,134.4,55.8,134.5,60.2,133.8z"/>
	<path class="st1" d="M175.9,130.8c0.7-3.9,3.4-3.2,5.8-2.8c4.3,0.8,8.7,1.4,12.8,2.8c1.6,0.5,2.6,2.7,3.9,4.2
		c-1.7,0.6-3.6,1.9-5.2,1.7c-6.5-0.9-13-2.2-19.5-3.4c-1.1-0.2-2.4-0.4-3.1-1.1c-0.8-0.8-1.6-2.2-1.6-3.4c0-0.8,1.4-2.2,2.1-2.2
		c1.3,0,2.8,0.7,3.8,1.6C175.6,128.6,175.6,129.9,175.9,130.8z"/>
	<path class="st1" d="M141.8,127c0-2.2,0-3.9,0-6c4.7,0.8,9,1.4,13.3,2.3c4,0.8,8,1.9,12.2,3c0.2,1.5,0.4,3.1,0.6,5.6
		C159.1,130.2,150.7,128.7,141.8,127z"/>
	<path class="st1" d="M4.4,148.8c0.6-2,0.7-5,2-5.7c1.9-1,4.7-0.3,6.8,0.4c5.1-1.7,10.3-3.4,15.4-5c2,7.1,1.4,8.5-5.3,8.3
		c-4.1-0.1-8.1,2.6-12.4,0.2c-0.8-0.4-3.1,2.1-4.7,3.2C5.5,149.7,5,149.3,4.4,148.8z"/>
	<path class="st1" d="M287.4,148.1c0.1,1.6,0.2,3.4,0.4,5.3c-1.9,0-4.3,0.6-5.6-0.2c-4.2-2.8-9.1-0.7-13.3-2.5
		c-1.8-0.8-4.4-2.8-4.4-4.2c0.2-3.1,2.5-2.5,5.2-1.8C275.3,146.2,281.2,146.9,287.4,148.1z"/>
	<path class="st1" d="M200,136.5c0-0.9,0-2.5,0-5c4,1.2,7.7,2.4,11.3,3.4c0.7,0.2,1.4,0,2.2-0.2c4.3-0.9,9.1,1.2,9.3,4.3
		c0.1,0.9-1.6,2.8-2.3,2.7c-5-0.7-9.9-1.6-14.8-2.7C203.9,138.7,202.4,137.6,200,136.5z"/>
	<path class="st1" d="M79.4,136.2c-2-4.8-2-4.7,3.6-5.8c4.8-1,9.5-2.4,14.3-3.6c1.6,7.1,1.4,7.3-5.3,8
		C87.9,135.3,83.7,135.8,79.4,136.2z"/>
	<path class="st1" d="M135.8,120.4c1.2,2.1,2,3.7,3,5.6c-6.6,1.4-12.7,2.6-19.4,4c-0.3-3.6-2.9-7.3,3.8-7.2
		c3.3,0.1,6.6-2.7,10.1-0.1C133.6,122.8,134.7,121.5,135.8,120.4z"/>
	<path class="st1" d="M100.5,131.7c-1.5-3.9,0.2-5.8,4.8-6.1c3.5-0.2,7-1.1,11.3-1.8c-0.1,2.3,0.3,5.9-0.4,6.1
		c-3.8,1.1-7.9,1.5-11.9,2.1C103.3,132.1,102.2,131.8,100.5,131.7z"/>
	<path class="st1" d="M62.7,134.1c5-1.3,9.2-2.4,14-3.6c-0.2,2.6-0.3,4.5-0.4,6.7c-4.3,0.6-8.5,1.2-13.2,1.9
		C62.9,137.5,62.8,135.8,62.7,134.1z"/>
</g>
</svg>
