<?xml version="1.0" encoding="utf-8"?>
<!-- Generator: Adobe Illustrator 22.0.1, SVG Export Plug-In . SVG Version: 6.00 Build 0)  -->
<svg version="1.1" id="Layer_1" xmlns="http://www.w3.org/2000/svg" xmlns:xlink="http://www.w3.org/1999/xlink" x="0px" y="0px"
	 viewBox="0 0 1366 768" style="enable-background:new 0 0 1366 768;" xml:space="preserve">
<style type="text/css">
	.st0{fill:#FFFFFF;}
</style>
<g>
	<path class="st0" d="M567,223c13.3,0,26.7,0,40,0c0,13.3,0,26.7,0,40c-13.3,0-26.7,0-40,0C567,249.7,567,236.3,567,223z
		 M587.1,261.7c9.8-0.1,18.4-8.7,18.5-18.5c0.1-9.9-8.9-18.9-18.8-18.8c-9.8,0.1-18.4,8.7-18.5,18.5
		C568.2,252.8,577.2,261.8,587.1,261.7z"/>
	<path d="M587.1,261.7c-9.9,0.1-18.9-8.8-18.8-18.8c0.1-9.8,8.7-18.4,18.5-18.5c9.9-0.1,18.9,8.8,18.8,18.8
		C605.6,253,597,261.6,587.1,261.7z M586.7,259.3c9.3,0.1,16.6-6.9,16.7-16.1c0.1-9.1-6.8-16.3-15.7-16.5
		c-9.4-0.2-16.8,6.7-16.9,15.8C570.5,251.9,577.5,259.2,586.7,259.3z"/>
	<path class="st0" d="M586.7,259.3c-9.2-0.1-16.1-7.4-16-16.8c0.2-9.1,7.6-16,16.9-15.8c8.9,0.2,15.8,7.4,15.7,16.5
		C603.2,252.4,596,259.4,586.7,259.3z M578.4,236.6c-0.8,6.5-0.8,13.3,6.5,16.8c1.7,0.8,4.8,0.2,6.5-0.9c6.5-4.1,5.6-10.5,5.1-15.4
		C590.3,230.6,584.5,231.8,578.4,236.6z"/>
	<path d="M578.4,236.6c6.1-4.8,11.8-6,18.1,0.4c0.5,4.9,1.4,11.4-5.1,15.4c-1.7,1.1-4.9,1.7-6.5,0.9
		C577.7,249.9,577.7,243.1,578.4,236.6z M579.6,241.4c0,5.9,3.9,11.7,7.9,11.7c4,0,7.9-5.8,7.9-11.6c0-3.8-4-7.9-7.9-7.9
		C583.7,233.5,579.6,237.6,579.6,241.4z"/>
	<path class="st0" d="M579.6,241.4c0-3.8,4.1-7.9,7.9-7.9c3.8,0,7.9,4.1,7.9,7.9c0,5.9-4,11.7-7.9,11.6
		C583.5,253.1,579.6,247.3,579.6,241.4z M592.3,242.4c-2.1-1.7-3.3-3.6-4.7-3.7c-1.1-0.1-3.4,2.2-3.3,3.1c0.3,2.3,1.8,4.5,2.8,6.7
		C588.6,246.8,590.1,245,592.3,242.4z"/>
	<path d="M592.3,242.4c-2.2,2.6-3.7,4.4-5.2,6.1c-1-2.2-2.4-4.4-2.8-6.7c-0.1-0.9,2.2-3.2,3.3-3.1
		C589,238.8,590.2,240.7,592.3,242.4z"/>
</g>
</svg>
